Иконка игр под домашнюю консоль

<svg xmlns="http://www.w3.org/2000/svg" viewBox="0 0 2048 2048" width="1em" height="1em" class="commonStyles-module__basicIcon___qnovY FeaturesList-module__icon___OTG4r Icon-module__icon___6ICyA Icon-module__xxSmall___vViZA" aria-hidden="true" fill="white"><path d="M256 320q0-26 19-45t45-19q26 0 45 19t19 45q0 26-19 45t-45 19q-26 0-45-19t-19-45zm1792 1523q0 57-19 103t-69 78q-15 10-34 17t-38 7q-35 0-64-25t-57-57-53-64-55-42q-9-4-21-4t-24-1h-236q-23 0-44 14t-41 36-40 46-41 47-44 35-48 15q-20 0-37-6t-34-17q-48-32-68-78t-21-102v-24q0-12 2-24 1-23 9-58t21-76 29-83 34-82 33-70 32-51q0-36 31-56 13-9 37-16t50-13 52-9 42-3q16 0 27 2t20 6 20 10 23 13h164q15-7 24-13t17-10 20-6 29-2q18 0 43 3t50 8 49 13 39 17q14 10 21 24t10 32q12 12 27 39t30 63 31 75 28 78 22 68 13 50q9 47 9 93zm-128 2q0-35-8-73-5-24-16-61t-25-76-29-75-26-59l-8-16q-4-8-9-15-7-8-12-12t-9-8-9-10-8-18q-21-7-42-9t-45-5q-14 6-22 11t-18 11-19 8-28 3h-166q-17 0-27-3t-20-7-18-11-22-12q-23 0-44 4t-44 10q-2 20-14 27t-23 21q-5 7-8 14t-8 16q-15 31-33 76t-34 93-27 94-11 80q0 20 4 39t21 32q28-25 48-49t38-45 36-38 41-29 55-19 77-7h192q46 0 78 7t55 19 40 30 34 38 38 44 50 49q17-11 21-30t4-39zM896 1553V128H128v1792h128v-896h128v896h455q12 68 52 128H0V0h1024v1270q-10 14-14 28t-11 28l-8 14q-4 7-9 14-28 47-48 97t-38 102zm608-82q14 0 23 9t9 23q0 14-9 23t-23 9q-14 0-23-9t-9-23q0-14 9-23t23-9z"></path></svg>